<svg xmlns="http://www.w3.org/2000/svg" stroke="null" height="630" width="630">
  <rect stroke="null" fill="#f7df1e" height="630" width="630" />
  <path
    stroke="null"
    d="m423.2,492.19c12.69,20.72 29.2,35.95 58.4,35.95c24.53,0 40.2,-12.26 40.2,-29.2c0,-20.3 -16.1,-27.49 -43.1,-39.3l-14.8,-6.35c-42.72,-18.2 -71.1,-41 -71.1,-89.2c0,-44.4 33.83,-78.2 86.7,-78.2c37.64,0 64.7,13.1 84.2,47.4l-46.1,29.6c-10.15,-18.2 -21.1,-25.37 -38.1,-25.37c-17.34,0 -28.33,11 -28.33,25.37c0,17.76 11,24.95 36.4,35.95l14.8,6.34c50.3,21.57 78.7,43.56 78.7,93c0,53.3 -41.87,82.5 -98.1,82.5c-54.98,0 -90.5,-26.2 -107.88,-60.54l48.11,-27.95zm-209.13,5.13c9.3,16.5 17.76,30.45 38.1,30.45c19.45,0 31.72,-7.61 31.72,-37.2l0,-201.3l59.2,0l0,202.1c0,61.3 -35.94,89.2 -88.4,89.2c-47.4,0 -74.85,-24.53 -88.81,-54.075l48.19,-29.175z"
  />
  <path
    stroke="null"
    fill="#ff6600"
    d="m107.92604,116.96193l0,15.8765l-54.35606,0l0,-79.29191l54.35606,0l0,15.8765l-38.50221,0l0,15.85385l26.04561,0l0,15.8765l-26.04561,0l0,15.80856l38.50221,0zm63.95897,13.38518l12.27541,18.36782l-18.02809,0l-9.51231,-14.26847q-0.77004,0.11324 -1.4495,0.11324q-0.7021,0 -1.3589,0l0,0q-5.63944,0 -10.87121,-1.47214q-5.23177,-1.47214 -9.78409,-4.14465q-4.57497,-2.69515 -8.3346,-6.45478q-3.75963,-3.75963 -6.43213,-8.31195q-2.67251,-4.55232 -4.14465,-9.78409q-1.47214,-5.23177 -1.47214,-10.87121l0,0q0,-5.63944 1.47214,-10.89386q1.47214,-5.25442 4.14465,-9.78409q2.67251,-4.52967 6.43213,-8.2893q3.75963,-3.75963 8.3346,-6.40949q4.55232,-2.67251 9.78409,-4.122q5.23177,-1.47214 10.87121,-1.47214l0,0q5.63944,0 10.89386,1.47214q5.25442,1.4495 9.78409,4.122q4.52967,2.64986 8.2893,6.40949q3.75963,3.75963 6.40949,8.2893q2.64986,4.52967 4.122,9.78409q1.47214,5.25442 1.47214,10.89386l0,0q0,5.86593 -1.63068,11.39212q-1.63068,5.5262 -4.62027,10.305q-2.98958,4.80145 -7.22483,8.65167q-4.21259,3.87287 -9.42172,6.47743l0,0zm7.13423,-36.82623l0,0q0,-5.18647 -1.99306,-9.80674q-1.99306,-4.62027 -5.39031,-8.01752q-3.39725,-3.39725 -8.01752,-5.39031q-4.62027,-1.99306 -9.80674,-1.99306l0,0q-5.25442,0 -9.85204,1.99306q-4.57497,1.99306 -8.01752,5.39031q-3.4199,3.39725 -5.41296,8.01752q-1.99306,4.62027 -1.99306,9.80674l0,0q0,5.20912 1.99306,9.76144q1.99306,4.55232 5.41296,7.99487q3.44255,3.4199 8.01752,5.41296q4.59762,1.99306 9.85204,1.99306l0,0q5.18647,0 9.80674,-1.99306q4.62027,-1.99306 8.01752,-5.41296q3.39725,-3.44255 5.39031,-7.99487q1.99306,-4.55232 1.99306,-9.76144zm88.69098,-39.97435l0,47.60685q0,6.59067 -2.49132,12.366q-2.49132,5.77533 -6.79451,10.05587q-4.32584,4.28054 -10.10117,6.77186q-5.77533,2.49132 -12.366,2.49132l0,0q-6.56802,0 -12.34336,-2.49132q-5.77533,-2.49132 -10.07852,-6.77186q-4.28054,-4.28054 -6.77186,-10.05587q-2.49132,-5.77533 -2.49132,-12.366l0,0l0,-47.60685l15.8312,0l0,47.60685q0,3.26136 1.24566,6.13771q1.24566,2.87634 3.39725,5.02794q2.15159,2.15159 5.05058,3.39725q2.89899,1.24566 6.16035,1.24566l0,0q3.26136,0 6.183,-1.24566q2.89899,-1.24566 5.05058,-3.39725q2.15159,-2.15159 3.39725,-5.02794q1.24566,-2.87634 1.24566,-6.13771l0,0l0,-47.60685l15.8765,0zm28.12926,47.60685l31.753,0l0,-15.8765q0,-3.26136 -1.24566,-6.16035q-1.24566,-2.89899 -3.4199,-5.05058q-2.15159,-2.15159 -5.05058,-3.39725q-2.89899,-1.24566 -6.16035,-1.24566l0,0q-3.26136,0 -6.16035,1.24566q-2.92164,1.24566 -5.07323,3.39725q-2.15159,2.15159 -3.39725,5.05058q-1.24566,2.89899 -1.24566,6.16035l0,0l0,15.8765zm47.60685,-15.8765l0,47.56156l-15.85385,0l0,-15.8765l-31.753,0l0,15.8765l-15.80856,0l0,-47.56156q0,-6.56802 2.49132,-12.34336q2.49132,-5.77533 6.77186,-10.10117q4.28054,-4.30319 10.05587,-6.79451q5.77533,-2.49132 12.366,-2.49132l0,0q6.56802,0 12.366,2.49132q5.77533,2.49132 10.07852,6.79451q4.32584,4.32584 6.79451,10.10117q2.49132,5.77533 2.49132,12.34336l0,0zm69.28133,31.68506l0,15.8765l-55.51113,0l0,-79.29191l15.8765,0l0,63.41541l39.63463,0zm24.09785,-63.41541l0,79.29191l-15.85385,0l0,-79.29191l15.85385,0zm47.99187,15.8765l0,63.41541l-15.80856,0l0,-63.41541l-23.82607,0l0,-15.8765l63.41541,0l0,15.8765l-23.78078,0zm67.85449,38.5928l0,24.8226l-15.8312,0l0,-24.8226q-5.25442,-1.33625 -9.6482,-4.25789q-4.39378,-2.94429 -7.5419,-6.99834q-3.14812,-4.05406 -4.89205,-9.01405q-1.74392,-4.93734 -1.74392,-10.41825l0,0l0,-23.78078l15.8765,0l0,23.78078q0,3.26136 1.24566,6.16035q1.24566,2.89899 3.39725,5.05058q2.15159,2.17424 5.05058,3.4199q2.89899,1.24566 6.16035,1.24566l0,0q3.26136,0 6.183,-1.24566q2.89899,-1.24566 5.05058,-3.4199q2.15159,-2.15159 3.39725,-5.05058q1.24566,-2.89899 1.24566,-6.16035l0,0l0,-23.78078l15.80856,0l0,23.78078q0,5.4809 -1.74392,10.41825q-1.72128,4.95999 -4.89205,9.01405q-3.14812,4.05406 -7.51926,6.99834q-4.37113,2.92164 -9.6029,4.25789l0,0z"
  />
</svg>
